<?xml version="1.0" encoding="UTF-8"?>
<svg width="20px" height="16px" viewBox="0 0 20 16" version="1.1" xmlns="http://www.w3.org/2000/svg" xmlns:xlink="http://www.w3.org/1999/xlink">
    <!-- Generator: sketchtool 56.3 (101010) - https://sketch.com -->
    <title>9B363971-4370-4D85-A8A2-AB772D7665E7</title>
    <desc>Created with sketchtool.</desc>
    <g id="Sign-Up" stroke="none" stroke-width="1" fill="none" fill-rule="evenodd">
        <g id="Login/password" transform="translate(-1168.000000, -323.000000)" fill="#B3BCD2" fill-rule="nonzero">
            <g id="Email-form" transform="translate(632.000000, 167.000000)">
                <g id="Password" transform="translate(0.000000, 107.000000)">
                    <g id="Field-active" transform="translate(0.000000, 31.000000)">
                        <path d="M536.087977,25.6024768 C536.205117,25.352578 536.424973,24.9356672 536.74528,24.4066441 C537.275417,23.5310623 537.900939,22.6560158 538.621219,21.8364968 C540.717756,19.4511031 543.183498,18 546,18 C548.816502,18 551.282244,19.4511031 553.378781,21.8364968 C554.099061,22.6560158 554.724583,23.5310623 555.25472,24.4066441 C555.575027,24.9356672 555.794883,25.352578 555.912023,25.6024768 C556.029326,25.8527235 556.029326,26.1472765 555.912023,26.3975232 C555.794883,26.647422 555.575027,27.0643328 555.25472,27.5933559 C554.724583,28.4689377 554.099061,29.3439842 553.378781,30.1635032 C551.282244,32.5488969 548.816502,34 546,34 C543.183498,34 540.717756,32.5488969 538.621219,30.1635032 C537.900939,29.3439842 537.275417,28.4689377 536.74528,27.5933559 C536.424973,27.0643328 536.205117,26.647422 536.087977,26.3975232 C535.970674,26.1472765 535.970674,25.8527235 536.087977,25.6024768 Z M538.145345,26.6288663 C538.624323,27.4199512 539.190207,28.2115714 539.837114,28.9476079 C541.646827,31.0066586 543.712335,32.2222222 546,32.2222222 C548.287665,32.2222222 550.353173,31.0066586 552.162886,28.9476079 C552.809793,28.2115714 553.375677,27.4199512 553.854655,26.6288663 C553.990602,26.4043334 554.111176,26.1934492 554.216073,26 C554.111176,25.8065508 553.990602,25.5956666 553.854655,25.3711337 C553.375677,24.5800488 552.809793,23.7884286 552.162886,23.0523921 C550.353173,20.9933414 548.287665,19.7777778 546,19.7777778 C543.712335,19.7777778 541.646827,20.9933414 539.837114,23.0523921 C539.190207,23.7884286 538.624323,24.5800488 538.145345,25.3711337 C538.009398,25.5956666 537.888824,25.8065508 537.783927,26 C537.888824,26.1934492 538.009398,26.4043334 538.145345,26.6288663 Z M546,29.5555556 C544.159051,29.5555556 542.666667,27.9636791 542.666667,26 C542.666667,24.0363209 544.159051,22.4444444 546,22.4444444 C547.840949,22.4444444 549.333333,24.0363209 549.333333,26 C549.333333,27.9636791 547.840949,29.5555556 546,29.5555556 Z M546,27.7777778 C546.920475,27.7777778 547.666667,26.9818396 547.666667,26 C547.666667,25.0181604 546.920475,24.2222222 546,24.2222222 C545.079525,24.2222222 544.333333,25.0181604 544.333333,26 C544.333333,26.9818396 545.079525,27.7777778 546,27.7777778 Z" id="icn_show"></path>
                    </g>
                </g>
            </g>
        </g>
    </g>
</svg>