<?xml version="1.0" encoding="UTF-8"?>
<svg width="20px" height="20px" viewBox="0 0 20 20" version="1.1" xmlns="http://www.w3.org/2000/svg" xmlns:xlink="http://www.w3.org/1999/xlink">
    <!-- Generator: sketchtool 56.3 (101010) - https://sketch.com -->
    <title>E4FECC7D-E138-46C6-BAFF-5BA9EC04803D</title>
    <desc>Created with sketchtool.</desc>
    <g id="Sign-Up" stroke="none" stroke-width="1" fill="none" fill-rule="evenodd">
        <g id="Sign-up/link-sent" transform="translate(-648.000000, -212.000000)" fill="#162B5B">
            <g id="Email-form" transform="translate(632.000000, 167.000000)">
                <g id="Email">
                    <g id="notification">
                        <g id="icn_success-copy" transform="translate(16.000000, 45.000000)">
                            <path d="M10,2 C5.589,2 2,5.589 2,10 C2,14.411 5.589,18 10,18 C14.411,18 18,14.411 18,10 C18,5.589 14.411,2 10,2 Z M10,20 C4.486,20 0,15.514 0,10 C0,4.486 4.486,0 10,0 C15.514,0 20,4.486 20,10 C20,15.514 15.514,20 10,20 Z M9.1597,14.9272 L5.1157,10.8842 L6.8837,9.1162 L8.8407,11.0732 L12.9827,5.2742 L15.0167,6.7262 L9.1597,14.9272 Z" id="icn_success"></path>
                        </g>
                    </g>
                </g>
            </g>
        </g>
    </g>
</svg>