<?xml version="1.0" encoding="UTF-8"?>
<svg width="12px" height="12px" viewBox="0 0 12 12" version="1.1" xmlns="http://www.w3.org/2000/svg" xmlns:xlink="http://www.w3.org/1999/xlink">
    <!-- Generator: sketchtool 56.3 (101010) - https://sketch.com -->
    <title>4D5AE8F0-5D20-49EE-9314-4CB2E4F75CB5</title>
    <desc>Created with sketchtool.</desc>
    <g id="Sign-Up" stroke="none" stroke-width="1" fill="none" fill-rule="evenodd">
        <g id="Sign-up/account-information_empty_with-image" transform="translate(-1176.000000, -187.000000)" fill="#B3BCD2">
            <g id="notification" transform="translate(632.000000, 167.000000)">
                <path d="M551.408639,25.9991474 L555.704487,21.7126801 C556.096231,21.3208808 556.096231,20.6856487 555.704487,20.2938494 C555.312744,19.9020502 554.677602,19.9020502 554.285858,20.2938494 L550,24.5903085 L545.714142,20.2938494 C545.322398,19.9020502 544.687256,19.9020502 544.295513,20.2938495 C543.903769,20.6856487 543.903769,21.3208808 544.295513,21.7126801 L548.591361,25.9991474 L544.295513,30.2856146 C544.106383,30.4732266 544,30.728612 544,30.9950299 C544,31.2614479 544.106383,31.5168333 544.295513,31.7044453 C544.483098,31.893602 544.738447,32 545.004827,32 C545.271207,32 545.526556,31.893602 545.714142,31.7044453 L550,27.4079862 L554.285858,31.7044453 C554.473444,31.893602 554.728793,32 554.995173,32 C555.261553,32 555.516902,31.893602 555.704487,31.7044453 C555.893617,31.5168333 556,31.2614479 556,30.9950299 C556,30.728612 555.893617,30.4732266 555.704487,30.2856146 L551.408639,25.9991474 Z" id="icn_close"></path>
            </g>
        </g>
    </g>
</svg>